<svg xmlns="http://www.w3.org/2000/svg" viewBox="0 0 900 900" width="900" height="900" role="img" aria-labelledby="ttl">
<title id="ttl">Franela Samurai Zen — spin 25/35 (250 grados, ilustracion vectorial)</title>
<desc>Frame de rotacion falsa: la prenda se comprime en X con factor -0.34 y el estampado se desplaza 291.67 px con opacidad 0.</desc>
<defs><filter id="soft" x="-35%" y="-35%" width="170%" height="170%"><feGaussianBlur stdDeviation="9"/></filter><filter id="soft2" x="-35%" y="-35%" width="170%" height="170%"><feGaussianBlur stdDeviation="3.2"/></filter><pattern id="ht" width="12" height="12" patternUnits="userSpaceOnUse"><circle cx="3" cy="3" r="2.1" fill="#000"/><circle cx="9" cy="9" r="2.1" fill="#000"/></pattern><pattern id="htFaint" width="14" height="14" patternUnits="userSpaceOnUse"><circle cx="3.5" cy="3.5" r="1.3" fill="#000"/><circle cx="10.5" cy="10.5" r="1.3" fill="#000"/></pattern><pattern id="diag" width="18" height="18" patternUnits="userSpaceOnUse" patternTransform="rotate(32)"><path d="M0 0V18" stroke="#000" stroke-width="2.2" opacity="0.16"/></pattern><pattern id="dots" width="28" height="28" patternUnits="userSpaceOnUse"><circle cx="7" cy="7" r="1.7" fill="#000" opacity="0.13"/></pattern><pattern id="pxgrid" width="20" height="20" patternUnits="userSpaceOnUse"><path d="M20 0H0V20" fill="none" stroke="#B4B4B4" stroke-width="1"/></pattern><pattern id="mesh" width="11" height="11" patternUnits="userSpaceOnUse"><path d="M0 0L11 11M11 0L0 11" stroke="#9E9E9E" stroke-width="1.1" fill="none"/></pattern><pattern id="snow" width="120" height="120" patternUnits="userSpaceOnUse"><circle cx="12" cy="18" r="3" fill="#000" opacity="0.5"/><circle cx="63" cy="47" r="2.2" fill="#000" opacity="0.35"/><circle cx="96" cy="92" r="4" fill="#000" opacity="0.45"/><circle cx="34" cy="104" r="2.6" fill="#000" opacity="0.3"/></pattern><linearGradient id="fold" x1="0" y1="0" x2="1" y2="0"><stop offset="0" stop-color="#000" stop-opacity="0.13"/><stop offset="0.2" stop-color="#000" stop-opacity="0"/><stop offset="0.62" stop-color="#000" stop-opacity="0"/><stop offset="1" stop-color="#000" stop-opacity="0.16"/></linearGradient><linearGradient id="shL" x1="0" y1="0" x2="1" y2="0"><stop offset="0" stop-color="#000" stop-opacity="0.34"/><stop offset="0.5" stop-color="#000" stop-opacity="0.05"/><stop offset="1" stop-color="#000" stop-opacity="0"/></linearGradient><linearGradient id="shR" x1="1" y1="0" x2="0" y2="0"><stop offset="0" stop-color="#000" stop-opacity="0.34"/><stop offset="0.5" stop-color="#000" stop-opacity="0.05"/><stop offset="1" stop-color="#000" stop-opacity="0"/></linearGradient><g id="g-franela"><path d="M250 196C250 234 350 234 350 196L516 216L552 300L524 330L406 268L406 566L194 566L194 268L76 330L48 300Z"/><path d="M205 292V548M395 292V548" fill="none" stroke="#8E8E8E" stroke-width="1.3" stroke-dasharray="8 6" stroke-linecap="round"/><path d="M200 550H400" fill="none" stroke="#8E8E8E" stroke-width="1.3" stroke-dasharray="8 6" stroke-linecap="round"/><path d="M250 196c0 30 100 30 100 0" fill="none" stroke="#C0C0C0" stroke-width="8" stroke-linecap="round"/><path d="M62 296L112 322M538 296L488 322" fill="none" stroke="#8E8E8E" stroke-width="1.3" stroke-dasharray="8 6" stroke-linecap="round"/><path d="M268 232l-6 16h76l-6-16" fill="none" stroke="#8E8E8E" stroke-width="1.3" stroke-dasharray="8 6" stroke-linecap="round"/></g><clipPath id="c-g-franela"><use href="#g-franela"/></clipPath><clipPath id="pc-g-franela"><rect x="190" y="284" width="220" height="248"/></clipPath></defs>
<rect width="900" height="900" fill="#F2F2F2"/><rect width="900" height="900" fill="url(#dots)"/><g transform="translate(450 0) scale(-0.34 1) translate(-450 0)"><g transform="translate(120 37.5) scale(1.1)"><use href="#g-franela" transform="translate(10 18)" fill="#000" stroke="none" opacity="0.15" filter="url(#soft)"/><use href="#g-franela" fill="#FFFFFF" stroke="#000" stroke-width="1.8" stroke-linejoin="round" stroke-linecap="round"/><g transform="translate(265.15 0)" opacity="0" clip-path="url(#pc-g-franela)"><g transform="translate(202 296) scale(0.47 0.47)"><circle cx="210" cy="88" r="70" fill="#000"/><circle cx="180" cy="66" r="15" fill="#EDEDED"/><circle cx="240" cy="106" r="21" fill="#EDEDED"/><circle cx="200" cy="50" r="8" fill="#B4B4B4"/><circle cx="238" cy="62" r="6" fill="#B4B4B4"/><circle cx="160" cy="108" r="9" fill="#CFCFCF"/><rect x="0" y="156" width="420" height="42" fill="#000"/><path transform="translate(66 194) scale(0.72)" d="M-96 0c0-24 18-30 32-28 8-22 32-22 40 0 16-2 24 10 24 28z" fill="#FFFFFF"/><path transform="translate(214 196) scale(0.86)" d="M-96 0c0-24 18-30 32-28 8-22 32-22 40 0 16-2 24 10 24 28z" fill="#FFFFFF"/><path transform="translate(362 194) scale(0.72)" d="M-96 0c0-24 18-30 32-28 8-22 32-22 40 0 16-2 24 10 24 28z" fill="#FFFFFF"/><g fill="#FFFFFF" stroke="#FFFFFF" stroke-width="10" stroke-linejoin="round" stroke-linecap="round"><path d="M204 236h12l-6-26Z"/><path d="M170 268C178 232 242 232 250 268C232 254 188 254 170 268Z"/><circle cx="210" cy="282" r="22"/><path d="M176 264h68v20h-68Z"/><path d="M188 292h44l34 96H154Z"/><path d="M126 430L210 366L294 430Z"/></g><g fill="#000000" stroke="#000000" stroke-width="1.4" stroke-linejoin="round"><path d="M204 236h12l-6-26Z"/><path d="M170 268C178 232 242 232 250 268C232 254 188 254 170 268Z"/><circle cx="210" cy="282" r="22"/><path d="M176 264h68v20h-68Z"/><path d="M188 292h44l34 96H154Z"/><path d="M126 430L210 366L294 430Z"/></g><path d="M172 267C190 253 230 253 248 267" stroke="#FFF" stroke-width="6" fill="none" stroke-linecap="round"/><path d="M188 273h44" stroke="#FFF" stroke-width="5" stroke-linecap="round"/><path d="M262 300L336 452" stroke="#000" stroke-width="7" stroke-linecap="round"/><path d="M248 314l28 12" stroke="#000" stroke-width="6" stroke-linecap="round"/><path d="M156 390h108" stroke="#FFF" stroke-width="3"/><path d="M40 462H380" stroke="#000" stroke-width="3" stroke-dasharray="2 8" stroke-linecap="round"/><path d="M270 462L298 462" stroke="#000" stroke-width="2" stroke-linecap="round" fill="none" opacity="0.5"/><path d="M228.54 519.06L237.19 545.69" stroke="#000" stroke-width="2" stroke-linecap="round" fill="none" opacity="0.5"/><path d="M161.46 497.27L138.81 513.73" stroke="#000" stroke-width="2" stroke-linecap="round" fill="none" opacity="0.5"/><path d="M161.46 426.73L138.81 410.27" stroke="#000" stroke-width="2" stroke-linecap="round" fill="none" opacity="0.5"/><path d="M228.54 404.94L237.19 378.31" stroke="#000" stroke-width="2" stroke-linecap="round" fill="none" opacity="0.5"/></g></g><rect width="600" height="750" fill="url(#shL)" clip-path="url(#c-g-franela)" opacity="0.57"/></g></g><text x="30" y="866" font-family="Arial, Helvetica, sans-serif" font-weight="bold" font-size="24" fill="#9A9A9A" letter-spacing="3">25/35 · 250°</text><text x="870" y="866" font-family="Arial, Helvetica, sans-serif" font-weight="bold" font-size="20" fill="#9A9A9A" text-anchor="end" letter-spacing="2" opacity="0.85">samurai-zen</text>
</svg>
