<svg xmlns="http://www.w3.org/2000/svg" viewBox="0 0 1200 900" width="1200" height="900" role="img" aria-labelledby="ttl">
<title id="ttl">Categoria A MEDIDA — silueta de prenda en gran formato (ilustracion vectorial monocroma)</title>
<desc>Silueta de la prenda en blanco con trazo negro, costuras punteadas y sombra difusa sobre fondo claro con textura.</desc>
<defs><filter id="soft" x="-35%" y="-35%" width="170%" height="170%"><feGaussianBlur stdDeviation="9"/></filter><filter id="soft2" x="-35%" y="-35%" width="170%" height="170%"><feGaussianBlur stdDeviation="3.2"/></filter><pattern id="ht" width="12" height="12" patternUnits="userSpaceOnUse"><circle cx="3" cy="3" r="2.1" fill="#000"/><circle cx="9" cy="9" r="2.1" fill="#000"/></pattern><pattern id="htFaint" width="14" height="14" patternUnits="userSpaceOnUse"><circle cx="3.5" cy="3.5" r="1.3" fill="#000"/><circle cx="10.5" cy="10.5" r="1.3" fill="#000"/></pattern><pattern id="diag" width="18" height="18" patternUnits="userSpaceOnUse" patternTransform="rotate(32)"><path d="M0 0V18" stroke="#000" stroke-width="2.2" opacity="0.16"/></pattern><pattern id="dots" width="28" height="28" patternUnits="userSpaceOnUse"><circle cx="7" cy="7" r="1.7" fill="#000" opacity="0.13"/></pattern><pattern id="pxgrid" width="20" height="20" patternUnits="userSpaceOnUse"><path d="M20 0H0V20" fill="none" stroke="#B4B4B4" stroke-width="1"/></pattern><pattern id="mesh" width="11" height="11" patternUnits="userSpaceOnUse"><path d="M0 0L11 11M11 0L0 11" stroke="#9E9E9E" stroke-width="1.1" fill="none"/></pattern><pattern id="snow" width="120" height="120" patternUnits="userSpaceOnUse"><circle cx="12" cy="18" r="3" fill="#000" opacity="0.5"/><circle cx="63" cy="47" r="2.2" fill="#000" opacity="0.35"/><circle cx="96" cy="92" r="4" fill="#000" opacity="0.45"/><circle cx="34" cy="104" r="2.6" fill="#000" opacity="0.3"/></pattern><linearGradient id="fold" x1="0" y1="0" x2="1" y2="0"><stop offset="0" stop-color="#000" stop-opacity="0.13"/><stop offset="0.2" stop-color="#000" stop-opacity="0"/><stop offset="0.62" stop-color="#000" stop-opacity="0"/><stop offset="1" stop-color="#000" stop-opacity="0.16"/></linearGradient><linearGradient id="shL" x1="0" y1="0" x2="1" y2="0"><stop offset="0" stop-color="#000" stop-opacity="0.34"/><stop offset="0.5" stop-color="#000" stop-opacity="0.05"/><stop offset="1" stop-color="#000" stop-opacity="0"/></linearGradient><linearGradient id="shR" x1="1" y1="0" x2="0" y2="0"><stop offset="0" stop-color="#000" stop-opacity="0.34"/><stop offset="0.5" stop-color="#000" stop-opacity="0.05"/><stop offset="1" stop-color="#000" stop-opacity="0"/></linearGradient><g id="g-tote"><path d="M226 318C222 212 290 212 286 318" fill="none" stroke="#000" stroke-width="1.8"/><path d="M314 318C310 212 378 212 374 318" fill="none" stroke="#000" stroke-width="1.8"/><path d="M234 296C232 224 288 224 286 296" fill="none" stroke="#8E8E8E" stroke-width="1.3" stroke-dasharray="8 6" stroke-linecap="round"/><path d="M322 296C320 224 376 224 374 296" fill="none" stroke="#8E8E8E" stroke-width="1.3" stroke-dasharray="8 6" stroke-linecap="round"/><path d="M190 318H410L424 606H176Z" fill="#FFFFFF" stroke="#000" stroke-width="1.8" stroke-linejoin="round"/><path d="M204 336H396L408 590H192Z" fill="none" stroke="#8E8E8E" stroke-width="1.3" stroke-dasharray="8 6" stroke-linecap="round"/><path d="M184 556H416" fill="none" stroke="#8E8E8E" stroke-width="1.3" stroke-dasharray="8 6" stroke-linecap="round"/><path d="M190 318H410" stroke="#000" stroke-width="5"/></g><clipPath id="c-g-tote"><use href="#g-tote"/></clipPath><clipPath id="pc-g-tote"><rect x="210" y="328" width="180" height="202"/></clipPath></defs>
<rect width="1200" height="900" fill="#EDEDED"/><rect width="1200" height="900" fill="url(#diag)"/><rect y="702" width="1200" height="198" fill="#000" opacity="0.05"/><g transform="translate(264 30) scale(1.12)"><path d="M40 300H560M300 200V640" stroke="#9A9A9A" stroke-width="1.6" stroke-dasharray="10 10" clip-path="url(#c-g-tote)"/><path d="M40 300H560" stroke="#000" stroke-width="1.6" stroke-dasharray="10 10"/><use href="#g-tote" transform="translate(10 18)" fill="#000" stroke="none" opacity="0.16" filter="url(#soft)"/><use href="#g-tote" fill="#FFFFFF" stroke="#000" stroke-width="1.8" stroke-linejoin="round" stroke-linecap="round"/><rect width="600" height="750" fill="url(#fold)" clip-path="url(#c-g-tote)" opacity="0.6"/></g><rect x="40" y="40" width="1120" height="820" fill="none" stroke="#000" stroke-width="3"/><path d="M0 34V0H34" fill="none" stroke="#000" stroke-width="2"/><path d="M40 34V0H6" fill="none" stroke="#000" stroke-width="2"/><path d="M0 6V40H34" fill="none" stroke="#000" stroke-width="2"/><path d="M40 6V40H6" fill="none" stroke="#000" stroke-width="2"/><rect x="950.56" y="92" width="177.44" height="48.1" fill="#000" stroke="#000" stroke-width="0"/><text x="1110" y="125.67" font-family="Arial, Helvetica, sans-serif" font-weight="bold" font-size="26" fill="#FFFFFF" letter-spacing="3">A MEDIDA</text><text x="76" y="800" font-family="Arial, Helvetica, sans-serif" font-weight="bold" font-size="20" fill="#9A9A9A" letter-spacing="4">JAYLU / CATEGORIA</text><text x="76" y="827" font-family="Arial, Helvetica, sans-serif" font-weight="bold" font-size="17.2" fill="#9A9A9A" letter-spacing="2" opacity="0.75">A-MEDIDA</text>
</svg>
